<svg width="32" height="32" viewBox="0 0 32 32" fill="none" xmlns="http://www.w3.org/2000/svg">
  <defs>
    <linearGradient id="bookGradient" x1="0%" y1="0%" x2="100%" y2="100%">
      <stop offset="0%" style="stop-color:#f59e0b;stop-opacity:1" />
      <stop offset="100%" style="stop-color:#d97706;stop-opacity:1" />
    </linearGradient>
    <linearGradient id="heartGradient" x1="0%" y1="0%" x2="100%" y2="100%">
      <stop offset="0%" style="stop-color:#ef4444;stop-opacity:1" />
      <stop offset="100%" style="stop-color:#dc2626;stop-opacity:1" />
    </linearGradient>
  </defs>
  
  <!-- Background circle -->
  <circle cx="16" cy="16" r="15" fill="white" stroke="#e5e7eb" stroke-width="2"/>
  
  <!-- Open book -->
  <path d="M6 8c0-1.1.9-2 2-2h6v16H8c-1.1 0-2-.9-2-2V8z" fill="url(#bookGradient)" opacity="0.9"/>
  <path d="M18 6h6c1.1 0 2 .9 2 2v12c0 1.1-.9 2-2 2h-6V6z" fill="url(#bookGradient)" opacity="0.7"/>
  
  <!-- Book spine line -->
  <line x1="16" y1="6" x2="16" y2="22" stroke="#b45309" stroke-width="1"/>
  
  <!-- Small heart -->
  <path d="M20 10c-1.1 0-2 .9-2 2 0 1.5 2 3 2 3s2-1.5 2-3c0-1.1-.9-2-2-2z" fill="url(#heartGradient)"/>
  <path d="M18 11.5c0-.8.7-1.5 1.5-1.5s1.5.7 1.5 1.5-1.5 2.5-1.5 2.5-.5-1.7-1.5-2.5z" fill="url(#heartGradient)"/>
  
  <!-- Subtle page lines -->
  <line x1="8" y1="10" x2="14" y2="10" stroke="#fbbf24" stroke-width="0.5" opacity="0.6"/>
  <line x1="8" y1="12" x2="13" y2="12" stroke="#fbbf24" stroke-width="0.5" opacity="0.6"/>
  <line x1="8" y1="14" x2="14" y2="14" stroke="#fbbf24" stroke-width="0.5" opacity="0.6"/>
</svg> 